<?xml version="1.0" encoding="us-ascii" standalone="no"?><svg xmlns="http://www.w3.org/2000/svg" xmlns:xlink="http://www.w3.org/1999/xlink" contentStyleType="text/css" height="216px" preserveAspectRatio="none" style="width:1504px;height:216px;background:#FFFFFF;" version="1.1" viewBox="0 0 1504 216" width="1504px" zoomAndPan="magnify"><defs/><g><rect fill="#F1F1F1" height="60.8906" rx="5" ry="5" style="stroke:#F1F1F1;stroke-width:1.5;" width="198" x="10" y="19"/><rect fill="#CCFF02" height="20.2969" rx="2" ry="2" style="stroke:#CCFF02;stroke-width:1.0;" width="196" x="11.5" y="19"/><text fill="#000000" font-family="sans-serif" font-size="14" font-weight="bold" lengthAdjust="spacing" textLength="44" x="15" y="33.9951">name</text><text fill="#000000" font-family="sans-serif" font-size="14" lengthAdjust="spacing" textLength="134" x="69" y="33.9951">generate plantuml</text><line style="stroke:#000000;stroke-width:1.0;" x1="64" x2="64" y1="19" y2="39.2969"/><line style="stroke:#000000;stroke-width:1.0;" x1="10" x2="208" y1="39.2969" y2="39.2969"/><text fill="#000000" font-family="sans-serif" font-size="14" font-weight="bold" lengthAdjust="spacing" textLength="20" x="15" y="54.292">on</text><text fill="#000000" font-family="sans-serif" font-size="14" lengthAdjust="spacing" textLength="34" x="69" y="54.292">push</text><line style="stroke:#000000;stroke-width:1.0;" x1="64" x2="64" y1="39.2969" y2="59.5938"/><line style="stroke:#000000;stroke-width:1.0;" x1="10" x2="208" y1="59.5938" y2="59.5938"/><text fill="#000000" font-family="sans-serif" font-size="14" font-weight="bold" lengthAdjust="spacing" textLength="34" x="15" y="74.5889">jobs</text><text fill="#000000" font-family="sans-serif" font-size="14" lengthAdjust="spacing" textLength="12" x="69" y="74.5889">&#160;&#160;&#160;</text><line style="stroke:#000000;stroke-width:1.0;" x1="64" x2="64" y1="59.5938" y2="79.8906"/><rect fill="none" height="60.8906" rx="5" ry="5" style="stroke:#000000;stroke-width:1.5;" width="198" x="10" y="19"/><rect fill="#F1F1F1" height="20.2969" rx="5" ry="5" style="stroke:#F1F1F1;stroke-width:1.5;" width="184" x="245" y="59.3516"/><text fill="#000000" font-family="sans-serif" font-size="14" font-weight="bold" lengthAdjust="spacing" textLength="152" x="250" y="74.3467">generate_plantuml</text><text fill="#000000" font-family="sans-serif" font-size="14" lengthAdjust="spacing" textLength="12" x="412" y="74.3467">&#160;&#160;&#160;</text><line style="stroke:#000000;stroke-width:1.0;" x1="407" x2="407" y1="59.3516" y2="79.6484"/><rect fill="none" height="20.2969" rx="5" ry="5" style="stroke:#000000;stroke-width:1.5;" width="184" x="245" y="59.3516"/><rect fill="#F1F1F1" height="60.8906" rx="5" ry="5" style="stroke:#F1F1F1;stroke-width:1.5;" width="180" x="466" y="39"/><text fill="#000000" font-family="sans-serif" font-size="14" font-weight="bold" lengthAdjust="spacing" textLength="62" x="471" y="53.9951">runs-on</text><text fill="#000000" font-family="sans-serif" font-size="14" lengthAdjust="spacing" textLength="98" x="543" y="53.9951">ubuntu-latest</text><line style="stroke:#000000;stroke-width:1.0;" x1="538" x2="538" y1="39" y2="59.2969"/><line style="stroke:#000000;stroke-width:1.0;" x1="466" x2="646" y1="59.2969" y2="59.2969"/><text fill="#000000" font-family="sans-serif" font-size="14" font-weight="bold" lengthAdjust="spacing" textLength="44" x="471" y="74.292">name</text><text fill="#000000" font-family="sans-serif" font-size="14" lengthAdjust="spacing" textLength="64" x="543" y="74.292">plantuml</text><line style="stroke:#000000;stroke-width:1.0;" x1="538" x2="538" y1="59.2969" y2="79.5938"/><line style="stroke:#000000;stroke-width:1.0;" x1="466" x2="646" y1="79.5938" y2="79.5938"/><text fill="#000000" font-family="sans-serif" font-size="14" font-weight="bold" lengthAdjust="spacing" textLength="45" x="471" y="94.5889">steps</text><text fill="#000000" font-family="sans-serif" font-size="14" lengthAdjust="spacing" textLength="12" x="543" y="94.5889">&#160;&#160;&#160;</text><line style="stroke:#000000;stroke-width:1.0;" x1="538" x2="538" y1="79.5938" y2="99.8906"/><rect fill="none" height="60.8906" rx="5" ry="5" style="stroke:#000000;stroke-width:1.5;" width="180" x="466" y="39"/><rect fill="#F1F1F1" height="40.5938" rx="5" ry="5" style="stroke:#F1F1F1;stroke-width:1.5;" width="22" x="683" y="69"/><text fill="#000000" font-family="sans-serif" font-size="14" lengthAdjust="spacing" textLength="12" x="688" y="83.9951">&#160;&#160;&#160;</text><line style="stroke:#000000;stroke-width:1.0;" x1="683" x2="705" y1="89.2969" y2="89.2969"/><text fill="#000000" font-family="sans-serif" font-size="14" lengthAdjust="spacing" textLength="12" x="688" y="104.292">&#160;&#160;&#160;</text><rect fill="none" height="40.5938" rx="5" ry="5" style="stroke:#000000;stroke-width:1.5;" width="22" x="683" y="69"/><rect fill="#F1F1F1" height="60.8906" rx="5" ry="5" style="stroke:#F1F1F1;stroke-width:1.5;" width="219" x="819.5" y="10"/><text fill="#000000" font-family="sans-serif" font-size="14" font-weight="bold" lengthAdjust="spacing" textLength="44" x="824.5" y="24.9951">name</text><text fill="#000000" font-family="sans-serif" font-size="14" lengthAdjust="spacing" textLength="67" x="878.5" y="24.9951">checkout</text><line style="stroke:#000000;stroke-width:1.0;" x1="873.5" x2="873.5" y1="10" y2="30.2969"/><line style="stroke:#000000;stroke-width:1.0;" x1="819.5" x2="1038.5" y1="30.2969" y2="30.2969"/><text fill="#000000" font-family="sans-serif" font-size="14" font-weight="bold" lengthAdjust="spacing" textLength="37" x="824.5" y="45.292">uses</text><text fill="#000000" font-family="sans-serif" font-size="14" lengthAdjust="spacing" textLength="155" x="878.5" y="45.292">actions/checkout@v1</text><line style="stroke:#000000;stroke-width:1.0;" x1="873.5" x2="873.5" y1="30.2969" y2="50.5938"/><line style="stroke:#000000;stroke-width:1.0;" x1="819.5" x2="1038.5" y1="50.5938" y2="50.5938"/><text fill="#000000" font-family="sans-serif" font-size="14" font-weight="bold" lengthAdjust="spacing" textLength="36" x="824.5" y="65.5889">with</text><text fill="#000000" font-family="sans-serif" font-size="14" lengthAdjust="spacing" textLength="12" x="878.5" y="65.5889">&#160;&#160;&#160;</text><line style="stroke:#000000;stroke-width:1.0;" x1="873.5" x2="873.5" y1="50.5938" y2="70.8906"/><rect fill="none" height="60.8906" rx="5" ry="5" style="stroke:#000000;stroke-width:1.5;" width="219" x="819.5" y="10"/><rect fill="#F1F1F1" height="20.2969" rx="5" ry="5" style="stroke:#F1F1F1;stroke-width:1.5;" width="125" x="1260" y="50.3516"/><text fill="#000000" font-family="sans-serif" font-size="14" font-weight="bold" lengthAdjust="spacing" textLength="96" x="1265" y="65.3467">fetch-depth</text><text fill="#000000" font-family="sans-serif" font-size="14" lengthAdjust="spacing" textLength="9" x="1371" y="65.3467">1</text><line style="stroke:#000000;stroke-width:1.0;" x1="1366" x2="1366" y1="50.3516" y2="70.6484"/><rect fill="none" height="20.2969" rx="5" ry="5" style="stroke:#000000;stroke-width:1.5;" width="125" x="1260" y="50.3516"/><rect fill="#F1F1F1" height="101.4844" rx="5" ry="5" style="stroke:#F1F1F1;stroke-width:1.5;" width="374" x="742" y="88.7578"/><text fill="#000000" font-family="sans-serif" font-size="14" font-weight="bold" lengthAdjust="spacing" textLength="44" x="747" y="103.7529">name</text><text fill="#000000" font-family="sans-serif" font-size="14" lengthAdjust="spacing" textLength="64" x="801" y="103.7529">plantuml</text><line style="stroke:#000000;stroke-width:1.0;" x1="796" x2="796" y1="88.7578" y2="109.0547"/><line style="stroke:#000000;stroke-width:1.0;" x1="742" x2="1116" y1="109.0547" y2="109.0547"/><text fill="#000000" font-family="sans-serif" font-size="14" font-weight="bold" lengthAdjust="spacing" textLength="15" x="747" y="124.0498">id</text><text fill="#000000" font-family="sans-serif" font-size="14" lengthAdjust="spacing" textLength="64" x="801" y="124.0498">plantuml</text><line style="stroke:#000000;stroke-width:1.0;" x1="796" x2="796" y1="109.0547" y2="129.3516"/><line style="stroke:#000000;stroke-width:1.0;" x1="742" x2="1116" y1="129.3516" y2="129.3516"/><text fill="#000000" font-family="sans-serif" font-size="14" font-weight="bold" lengthAdjust="spacing" textLength="37" x="747" y="144.3467">uses</text><text fill="#000000" font-family="sans-serif" font-size="14" lengthAdjust="spacing" textLength="310" x="801" y="144.3467">grassedge/generate-plantuml-action@v1.5</text><line style="stroke:#000000;stroke-width:1.0;" x1="796" x2="796" y1="129.3516" y2="149.6484"/><line style="stroke:#000000;stroke-width:1.0;" x1="742" x2="1116" y1="149.6484" y2="149.6484"/><text fill="#000000" font-family="sans-serif" font-size="14" font-weight="bold" lengthAdjust="spacing" textLength="36" x="747" y="164.6436">with</text><text fill="#000000" font-family="sans-serif" font-size="14" lengthAdjust="spacing" textLength="12" x="801" y="164.6436">&#160;&#160;&#160;</text><line style="stroke:#000000;stroke-width:1.0;" x1="796" x2="796" y1="149.6484" y2="169.9453"/><line style="stroke:#000000;stroke-width:1.0;" x1="742" x2="1116" y1="169.9453" y2="169.9453"/><text fill="#000000" font-family="sans-serif" font-size="14" font-weight="bold" lengthAdjust="spacing" textLength="28" x="747" y="184.9404">env</text><text fill="#000000" font-family="sans-serif" font-size="14" lengthAdjust="spacing" textLength="12" x="801" y="184.9404">&#160;&#160;&#160;</text><line style="stroke:#000000;stroke-width:1.0;" x1="796" x2="796" y1="169.9453" y2="190.2422"/><rect fill="none" height="101.4844" rx="5" ry="5" style="stroke:#000000;stroke-width:1.5;" width="374" x="742" y="88.7578"/><rect fill="#F1F1F1" height="40.5938" rx="5" ry="5" style="stroke:#F1F1F1;stroke-width:1.5;" width="247" x="1199" y="125"/><text fill="#000000" font-family="sans-serif" font-size="14" font-weight="bold" lengthAdjust="spacing" textLength="38" x="1204" y="139.9951">path</text><text fill="#000000" font-family="sans-serif" font-size="14" lengthAdjust="spacing" textLength="64" x="1285" y="139.9951">plantuml</text><line style="stroke:#000000;stroke-width:1.0;" x1="1280" x2="1280" y1="125" y2="145.2969"/><line style="stroke:#000000;stroke-width:1.0;" x1="1199" x2="1446" y1="145.2969" y2="145.2969"/><text fill="#000000" font-family="sans-serif" font-size="14" font-weight="bold" lengthAdjust="spacing" textLength="71" x="1204" y="160.292">message</text><text fill="#000000" font-family="sans-serif" font-size="14" lengthAdjust="spacing" textLength="156" x="1285" y="160.292">Render PlantUML files</text><line style="stroke:#000000;stroke-width:1.0;" x1="1280" x2="1280" y1="145.2969" y2="165.5938"/><rect fill="none" height="40.5938" rx="5" ry="5" style="stroke:#000000;stroke-width:1.5;" width="247" x="1199" y="125"/><rect fill="#F1F1F1" height="20.2969" rx="5" ry="5" style="stroke:#F1F1F1;stroke-width:1.5;" width="339" x="1153" y="184.3516"/><text fill="#000000" font-family="sans-serif" font-size="14" font-weight="bold" lengthAdjust="spacing" textLength="121" x="1158" y="199.3467">GITHUB_TOKEN</text><text fill="#000000" font-family="sans-serif" font-size="14" lengthAdjust="spacing" textLength="198" x="1289" y="199.3467">${{ secrets.WIKI_TOKEN }}</text><line style="stroke:#000000;stroke-width:1.0;" x1="1284" x2="1284" y1="184.3516" y2="204.6484"/><rect fill="none" height="20.2969" rx="5" ry="5" style="stroke:#000000;stroke-width:1.5;" width="339" x="1153" y="184.3516"/><path d="M1027.5,60.5 L1040.5,60.5 C1112.9959,60.5 1195.9939,60.5 1252.9814,60.5 " fill="none" style="stroke:#000000;stroke-width:1.0;stroke-dasharray:3.0,3.0;"/><path d="M1252.9814,63.5061 L1255.236,60.5 L1252.9814,57.4939 L1260.4967,60.5 L1252.9814,63.5061 " fill="#000000" style="stroke:#000000;stroke-width:1.0;"/><ellipse cx="1027.5" cy="60.5" fill="#000000" rx="3" ry="3" style="stroke:#000000;stroke-width:1.0;"/><path d="M693,79.5 L706,79.5 C740.8192,79.5 778.2494,74.809 812.2914,68.6808 " fill="none" style="stroke:#000000;stroke-width:1.0;stroke-dasharray:3.0,3.0;"/><path d="M812.8568,71.7461 L814.5903,68.2567 L811.7259,65.6156 L819.9544,67.2672 L812.8568,71.7461 " fill="#000000" style="stroke:#000000;stroke-width:1.0;"/><ellipse cx="693" cy="79.5" fill="#000000" rx="3" ry="3" style="stroke:#000000;stroke-width:1.0;"/><path d="M1104,159.5 L1117,159.5 C1141.1658,159.5 1166.8968,158.5197 1191.6726,157.0779 " fill="none" style="stroke:#000000;stroke-width:1.0;stroke-dasharray:3.0,3.0;"/><path d="M1191.8572,160.1401 L1193.9692,156.9394 L1191.4879,154.0156 L1199.3281,156.6162 L1191.8572,160.1401 " fill="#000000" style="stroke:#000000;stroke-width:1.0;"/><ellipse cx="1104" cy="159.5" fill="#000000" rx="3" ry="3" style="stroke:#000000;stroke-width:1.0;"/><path d="M1104,180.5 L1117,180.5 C1145.8991,180.5 1177.0367,181.902 1206.102,183.8186 " fill="none" style="stroke:#000000;stroke-width:1.0;stroke-dasharray:3.0,3.0;"/><path d="M1205.8918,186.9143 L1208.4238,183.9762 L1206.3122,180.7229 L1213.8413,184.3441 L1205.8918,186.9143 " fill="#000000" style="stroke:#000000;stroke-width:1.0;"/><ellipse cx="1104" cy="180.5" fill="#000000" rx="3" ry="3" style="stroke:#000000;stroke-width:1.0;"/><path d="M693,99.5 L706,99.5 C715.3681,99.5 724.9235,99.8477 734.55,100.4784 " fill="none" style="stroke:#000000;stroke-width:1.0;stroke-dasharray:3.0,3.0;"/><path d="M734.3239,103.5717 L736.8699,100.6479 L734.776,97.3851 L742.2832,101.0435 L734.3239,103.5717 " fill="#000000" style="stroke:#000000;stroke-width:1.0;"/><ellipse cx="693" cy="99.5" fill="#000000" rx="3" ry="3" style="stroke:#000000;stroke-width:1.0;"/><path d="M634,89.5 L647,89.5 C656.4213,89.5 666.9164,89.5 675.5483,89.5 " fill="none" style="stroke:#000000;stroke-width:1.0;stroke-dasharray:3.0,3.0;"/><path d="M675.5483,92.5437 L677.8311,89.5 L675.5483,86.4563 L683.1575,89.5 L675.5483,92.5437 " fill="#000000" style="stroke:#000000;stroke-width:1.0;"/><ellipse cx="634" cy="89.5" fill="#000000" rx="3" ry="3" style="stroke:#000000;stroke-width:1.0;"/><path d="M417,69.5 L430,69.5 C439.2838,69.5 448.9539,69.5 458.6246,69.5 " fill="none" style="stroke:#000000;stroke-width:1.0;stroke-dasharray:3.0,3.0;"/><path d="M458.6246,72.5994 L460.9491,69.5 L458.6246,66.4006 L466.373,69.5 L458.6246,72.5994 " fill="#000000" style="stroke:#000000;stroke-width:1.0;"/><ellipse cx="417" cy="69.5" fill="#000000" rx="3" ry="3" style="stroke:#000000;stroke-width:1.0;"/><path d="M196,69.5 L209,69.5 C218.2571,69.5 227.8923,69.5 237.5349,69.5 " fill="none" style="stroke:#000000;stroke-width:1.0;stroke-dasharray:3.0,3.0;"/><path d="M237.5349,72.5911 L239.8532,69.5 L237.5349,66.4089 L245.2627,69.5 L237.5349,72.5911 " fill="#000000" style="stroke:#000000;stroke-width:1.0;"/><ellipse cx="196" cy="69.5" fill="#000000" rx="3" ry="3" style="stroke:#000000;stroke-width:1.0;"/><!--SRC=[TPBDRjim48JlV8g5seDza5sxQL7ePAHr4oTs6yHsUWneQIsnaKY1krGG17dtaf8bDFqHG42S_JWxN6b1B2q_oQeKRmgL5wLV396M5KQl56AiAO8fH8-AY_QbGYAPUqu4F84SDLh927KfDJjlQNG2jQD2_3G7IWGCo7sF1170EarnWDt1UJakFKBSbZhhmJ58RPJk841y8j82qmVZ-2G3E49AGAQiZAPfNruqiu485qc67S0HEItY36ilm-mF_rS9mgEoVuXTqznA8inodFRtZNioxWBv69CF_mrIov3WBtE0qyGJY6vHPsZX9Z3xpHgEgaIA1XHryxlXnMftkJ-_tts_NdvBuEtpCn2c5facFrRNgqw7bnUnyAxjlo06umOj-S0mcypVpTzFPcS7P3aVxVM3DeyQKbFLlZMmgd0iHXStQo3ZR8gGAMAh3YvSTookP2FXrdzS5OOPTgFTPWpRPI_2KZVA6bsXPd5rj-aWk3IyhGstyCUp-5mnRD7wK72t4L_mA5t9_cXgCgNp1FQxh_4diPOwT-sSK8lFnZUmJxws_GK0]--></g></svg>