<?xml version="1.0" encoding="us-ascii" standalone="no"?><svg xmlns="http://www.w3.org/2000/svg" xmlns:xlink="http://www.w3.org/1999/xlink" contentStyleType="text/css" height="192px" preserveAspectRatio="none" style="width:421px;height:192px;background:#FFFFFF;" version="1.1" viewBox="0 0 421 192" width="421px" zoomAndPan="magnify"><defs/><g><!--entity User--><g id="elem_User"><ellipse cx="95" cy="22" fill="#F1F1F1" rx="16" ry="16" style="stroke:#181818;stroke-width:0.5;"/><path d="M95,42 C99,42 102,42 106,38 C114,38 122,46 122,54 L122,58 C122,62 118,66 114,66 L76,66 C72,66 68,62 68,58 L68,54 C68,46 76,38 84,38 C88,42 91,42 95,42 " fill="#F1F1F1" style="stroke:#181818;stroke-width:0.5;"/><text fill="#000000" font-family="sans-serif" font-size="14" lengthAdjust="spacing" textLength="31" x="79.5" y="79.4951">User</text></g><g id="elem_Use"><ellipse cx="94.7915" cy="164.6583" fill="#F1F1F1" rx="88.7915" ry="20.1583" style="stroke:#181818;stroke-width:0.5;"/><text fill="#000000" font-family="sans-serif" font-size="14" lengthAdjust="spacing" textLength="139" x="25.2915" y="167.505">Use the application</text></g><!--entity Admin--><g id="elem_Admin"><ellipse cx="317" cy="22" fill="#F1F1F1" rx="16" ry="16" style="stroke:#181818;stroke-width:0.5;"/><path d="M317,42 C321,42 324,42 328,38 C336,38 344,46 344,54 L344,58 C344,62 340,66 336,66 L298,66 C294,66 290,62 290,58 L290,54 C290,46 298,38 306,38 C310,42 313,42 317,42 " fill="#F1F1F1" style="stroke:#181818;stroke-width:0.5;"/><text fill="#000000" font-family="sans-serif" font-size="14" lengthAdjust="spacing" textLength="83" x="275.5" y="79.4951">Main Admin</text></g><g id="elem_Admin the application"><ellipse cx="317.1626" cy="164.5325" fill="#F1F1F1" rx="98.1626" ry="22.0325" style="stroke:#181818;stroke-width:0.5;"/><text fill="#000000" font-family="sans-serif" font-size="14" lengthAdjust="spacing" textLength="160" x="237.1626" y="167.3792">Admin the application</text></g><!--link User to Use--><g id="link_User_Use"><path d="M95,82.82 C95,103.2756 95,121.6699 95,138.2395 " fill="none" id="User-to-Use" style="stroke:#181818;stroke-width:1.0;"/><polygon fill="#181818" points="95,144.2395,99,135.2395,95,139.2395,91,135.2395,95,144.2395" style="stroke:#181818;stroke-width:1.0;"/></g><!--link Admin to Admin the application--><g id="link_Admin_Admin the application"><path d="M317,82.82 C317,102.4628 317,119.7375 317,136.228 " fill="none" id="Admin-to-Admin the application" style="stroke:#181818;stroke-width:1.0;"/><polygon fill="#181818" points="317,142.228,321,133.228,317,137.228,313,133.228,317,142.228" style="stroke:#181818;stroke-width:1.0;"/></g><!--SRC=[AyxEp2j8B4hCLKXCBial2Ywfp4bLI2nFBSxFJUMo2YrEBR9IqDMrKz00CZMvb7mJC_CK75DoC_EK51AB8Imk9Q2SGaa6K5z1GKvcSc99PZv46g89h0XY28I9fbGJ0000]--></g></svg>